<?xml version="1.0" standalone="no"?>
<!DOCTYPE svg PUBLIC "-//W3C//DTD SVG 20010904//EN"
 "http://www.w3.org/TR/2001/REC-SVG-20010904/DTD/svg10.dtd">
<svg version="1.0" xmlns="http://www.w3.org/2000/svg"
 width="1200.000000pt" height="1920.000000pt" viewBox="0 0 1200.000000 1920.000000"
 preserveAspectRatio="xMidYMid meet">

<g transform="translate(0.000000,1920.000000) scale(0.100000,-0.100000)"
fill="#000000" stroke="none">
<path d="M2920 12893 c0 -1730 5 -1973 40 -2247 73 -572 286 -1112 623 -1580
343 -478 831 -924 1414 -1295 171 -108 419 -248 639 -360 142 -73 189 -101
168 -101 -55 0 -309 20 -449 36 -584 65 -1273 253 -1787 488 l-78 35 125 251
c112 226 125 257 125 304 0 63 -36 143 -83 182 -58 49 -169 92 -392 153 -362
99 -503 150 -727 263 -233 117 -415 248 -611 437 -59 57 -108 102 -110 100 -9
-12 60 -889 79 -1010 l6 -35 -134 -42 c-234 -74 -559 -144 -735 -159 -48 -4
-73 -10 -73 -18 0 -16 108 -126 216 -221 165 -145 341 -271 522 -374 l92 -52
-37 -52 c-20 -28 -56 -76 -78 -106 -93 -125 -108 -171 -81 -263 25 -87 80
-138 324 -301 243 -161 421 -267 687 -408 150 -80 544 -268 560 -268 2 0 33
-13 67 -29 110 -50 397 -157 593 -221 1444 -470 3104 -463 4555 21 675 225
1368 571 1952 975 180 126 225 184 227 297 1 64 -16 102 -97 210 -38 51 -77
104 -86 119 l-17 26 73 42 c225 129 476 318 653 494 l110 109 -30 8 c-16 4
-90 17 -164 29 -221 34 -727 161 -753 188 -3 4 5 111 17 237 30 287 55 627 55
730 l0 78 -133 -129 c-218 -214 -469 -378 -764 -500 -139 -58 -300 -110 -543
-175 -259 -69 -351 -109 -411 -177 -47 -54 -74 -135 -65 -194 4 -21 61 -147
127 -280 66 -132 119 -241 117 -243 -2 -1 -57 -26 -123 -55 -640 -279 -1402
-459 -2090 -495 l-120 -6 203 105 c718 374 1224 737 1658 1190 534 555 862
1187 983 1891 57 330 55 257 58 2248 l4 1837 -3151 0 -3150 0 0 -1687z m5422
1567 l759 0 -4 -1772 c-3 -1918 -2 -1861 -58 -2177 -66 -378 -196 -746 -370
-1049 -336 -587 -807 -1070 -1479 -1519 -267 -178 -690 -412 -999 -554 -136
-62 -101 -68 -386 72 -450 220 -801 432 -1136 685 -906 683 -1424 1475 -1574
2409 -48 297 -48 275 -52 2134 -2 964 -1 1761 2 1769 5 14 241 15 2272 9 1246
-4 2608 -7 3025 -7z m-6298 -5245 c81 -67 254 -182 376 -250 232 -128 453
-209 870 -320 196 -52 271 -85 313 -137 32 -40 40 -95 17 -123 -12 -15 -15
-13 -32 19 -34 67 -134 122 -284 157 -488 113 -863 271 -1184 499 -153 109
-177 135 -185 200 l-6 55 23 -21 c13 -12 54 -47 92 -79z m8162 63 c-3 -13 -6
-36 -6 -53 -1 -25 -13 -40 -78 -92 -319 -254 -678 -419 -1206 -552 -107 -28
-214 -59 -238 -71 -52 -26 -104 -74 -125 -114 -15 -28 -16 -29 -29 -11 -32 44
-4 113 66 164 45 32 139 64 454 151 250 69 373 115 571 210 196 95 400 229
540 353 47 42 60 46 51 15z m-7518 -747 c31 -11 157 -69 279 -129 275 -135
386 -174 500 -175 46 0 83 -2 83 -3 0 -4 -150 -295 -156 -302 -8 -11 -381 194
-600 329 -207 128 -257 171 -270 235 -12 64 54 82 164 45z m6916 3 c49 -49 -3
-120 -168 -228 -190 -125 -651 -386 -682 -386 -5 0 -44 69 -85 153 l-76 152
81 1 c62 1 103 9 172 32 85 28 489 214 542 248 66 43 186 59 216 28z m-6969
-304 c339 -227 842 -483 1251 -635 1394 -520 2941 -524 4344 -13 379 138 759
325 1151 565 182 111 253 164 292 219 l32 46 13 -33 c28 -68 -4 -101 -253
-265 -676 -445 -1427 -740 -2275 -893 -418 -76 -640 -95 -1110 -95 -497 0
-794 27 -1210 111 -589 118 -1044 268 -1548 513 -288 140 -663 358 -818 476
-83 63 -102 96 -84 148 l12 36 51 -56 c28 -31 96 -87 152 -124z m-1293 -57
c129 -118 350 -273 496 -347 29 -14 52 -29 52 -32 0 -2 -10 -18 -22 -34 l-22
-30 -65 36 c-211 116 -629 431 -604 455 8 7 40 15 75 18 10 0 51 -29 90 -66z
m9611 58 l28 -6 -43 -42 c-120 -115 -370 -297 -553 -402 l-89 -51 -23 27 c-12
16 -22 30 -22 33 -1 3 38 28 86 55 139 81 270 170 394 270 64 52 122 101 129
110 13 15 43 18 93 6z m-8402 -291 c10 -6 19 -15 19 -20 0 -4 -34 -63 -75
-129 -41 -67 -75 -125 -75 -130 0 -5 16 -18 35 -30 39 -23 41 -29 22 -56 -13
-17 -17 -16 -75 24 -34 23 -62 47 -62 52 0 16 176 299 186 299 3 0 14 -5 25
-10z m7085 -67 c27 -32 82 -95 122 -140 l72 -82 -26 -17 c-25 -17 -26 -17 -51
14 -19 25 -28 30 -41 22 -43 -24 -43 -25 -27 -63 15 -36 14 -37 -10 -53 -14
-9 -27 -15 -29 -13 -8 11 -126 333 -126 344 0 12 43 43 61 45 4 0 28 -26 55
-57z m-6865 -70 c16 -10 29 -22 29 -28 0 -5 -25 -80 -55 -165 -31 -85 -58
-161 -60 -167 -3 -10 -10 -10 -30 -1 -27 12 -28 18 -10 75 6 17 1 25 -23 37
-30 16 -31 15 -55 -15 -22 -28 -26 -30 -46 -18 -11 8 -21 18 -21 22 0 8 231
277 238 277 2 0 17 -8 33 -17z m6673 -14 c44 -35 50 -56 21 -75 -23 -15 -25
-15 -48 12 -27 31 -57 28 -57 -5 0 -25 100 -209 116 -215 7 -3 20 1 30 9 18
12 18 15 2 49 l-18 36 29 14 c27 15 28 14 44 -20 23 -47 21 -78 -5 -109 -30
-34 -76 -46 -114 -30 -22 9 -43 38 -88 121 -76 139 -78 175 -12 215 40 24 67
24 100 -2z m-6424 -148 c6 -16 8 -40 5 -54 -9 -32 -49 -77 -70 -77 -18 0 -19
-5 -5 -29 14 -27 -6 -86 -37 -111 -36 -28 -86 -25 -144 8 -27 15 -49 30 -49
33 0 3 39 77 86 163 l86 156 58 -31 c38 -20 62 -41 70 -58z m6282 -87 c43 -82
77 -154 78 -160 0 -8 -40 -34 -53 -34 -1 0 -38 72 -82 161 -77 155 -79 161
-60 175 10 8 24 13 30 11 5 -2 45 -70 87 -153z m-168 71 c5 -16 -2 -23 -39
-38 -25 -11 -45 -22 -45 -27 0 -13 30 -80 36 -80 3 0 18 7 35 15 33 18 44 14
52 -15 4 -16 -2 -24 -26 -36 -18 -9 -33 -18 -35 -19 -2 -2 13 -35 32 -74 l36
-70 -28 -15 -28 -15 -82 165 -81 164 77 39 c42 22 80 36 83 33 4 -4 9 -16 13
-27z m-229 -7 c-9 -42 -12 -45 -37 -59 -20 -11 -21 -9 -15 31 5 42 19 60 45
60 10 0 12 -9 7 -32z m-5721 -32 c40 -17 66 -51 66 -87 0 -38 -93 -222 -125
-247 -33 -26 -67 -28 -106 -5 -62 37 -60 81 11 223 42 84 72 116 118 129 1 1
18 -5 36 -13z m5799 -189 c38 -83 71 -157 73 -164 3 -6 -7 -18 -23 -26 l-29
-15 -74 165 c-70 158 -73 166 -55 179 10 8 24 14 29 14 6 0 42 -69 79 -153z
m-5558 64 c36 -21 50 -56 41 -104 -6 -34 -48 -89 -73 -98 -8 -2 -18 -39 -24
-85 l-12 -82 -29 10 c-26 9 -29 14 -24 42 18 105 19 136 2 136 -11 0 -27 -23
-46 -65 -16 -36 -33 -65 -37 -65 -4 1 -17 6 -29 13 -21 12 -20 15 54 179 l75
167 36 -15 c20 -8 49 -23 66 -33z m5403 13 c2 -14 -5 -24 -22 -32 l-25 -11 60
-137 c32 -76 59 -140 59 -144 0 -7 -51 -33 -55 -28 -1 2 -28 65 -60 141 -31
75 -62 137 -67 137 -5 0 -18 -5 -29 -10 -16 -9 -21 -7 -31 15 -6 14 -9 26 -7
28 18 14 147 65 159 64 8 -1 16 -11 18 -23z m-142 -234 l62 -165 -25 -13 c-14
-8 -28 -10 -32 -5 -4 4 -36 43 -71 86 -35 42 -65 76 -67 74 -2 -2 13 -46 32
-97 20 -51 35 -93 33 -95 -2 -1 -13 -8 -26 -14 -20 -11 -23 -9 -33 16 -56 145
-119 317 -117 318 2 1 14 8 27 15 26 13 20 19 118 -103 25 -31 48 -56 49 -54
2 2 -13 45 -33 96 -30 77 -34 95 -22 102 8 5 20 8 28 6 8 -1 41 -72 77 -167z
m-5051 138 c14 -6 25 -16 25 -21 0 -26 -64 -343 -71 -351 -5 -6 -18 -5 -34 2
-22 10 -23 15 -15 37 16 42 12 52 -22 64 -17 6 -32 10 -33 9 -2 -2 -10 -17
-19 -35 -15 -30 -18 -31 -46 -22 -16 6 -28 14 -26 17 2 4 34 57 71 117 37 61
80 129 94 153 28 45 36 48 76 30z m-1891 -103 c30 -45 491 -345 776 -504 962
-536 1969 -840 3055 -922 195 -14 755 -14 965 0 1189 83 2285 434 3333 1068
174 105 498 326 516 352 11 15 26 42 34 61 l14 35 11 -40 c15 -52 1 -105 -38
-144 -66 -65 -469 -323 -756 -484 -595 -333 -1194 -570 -1859 -736 -841 -211
-1807 -261 -2715 -140 -959 127 -1920 469 -2800 997 -199 119 -491 311 -533
351 -54 50 -73 123 -45 174 11 21 12 21 19 -10 3 -18 14 -44 23 -58z m2139 5
c5 -5 6 -18 2 -30 -6 -19 -12 -21 -40 -16 l-32 6 -43 -122 c-24 -68 -47 -133
-51 -145 -7 -20 -11 -21 -39 -11 -23 8 -29 15 -25 27 38 92 95 267 91 278 -3
7 -12 13 -20 13 -21 0 -28 17 -16 39 10 19 11 19 87 -6 43 -14 82 -29 86 -33z
m4517 36 c0 -8 3 -21 6 -29 3 -10 -3 -17 -20 -21 -14 -3 -36 -10 -49 -15 -24
-10 -25 -10 -10 -55 l15 -44 38 13 c33 12 39 12 44 -2 12 -30 5 -42 -28 -53
l-34 -11 15 -47 c9 -26 17 -49 19 -51 2 -2 24 4 50 13 51 17 59 16 67 -13 4
-16 -7 -23 -68 -45 -40 -14 -77 -26 -83 -26 -8 0 -122 312 -122 336 0 8 128
61 153 63 4 1 7 -5 7 -13z m-4307 -15 c11 -11 -69 -52 -88 -45 -14 6 -12 11
11 35 27 28 53 31 77 10z m4138 -213 c28 -90 54 -168 56 -174 2 -7 -9 -16 -26
-22 l-31 -11 -51 162 c-29 89 -54 168 -56 174 -4 11 26 30 49 32 4 1 31 -72
59 -161z m-4180 123 c37 -38 37 -65 -1 -185 -34 -106 -58 -142 -100 -151 -41
-9 -95 19 -111 57 -11 26 -10 41 3 92 24 92 58 176 79 197 31 31 94 26 130
-10z m4008 -45 c12 -13 23 -36 24 -52 2 -25 -2 -29 -25 -32 -22 -3 -29 2 -34
22 -7 31 -29 40 -48 21 -11 -12 -12 -23 -5 -48 5 -17 19 -67 30 -109 22 -83
36 -102 64 -92 14 6 16 15 11 49 -5 40 -4 43 22 48 32 6 42 -6 42 -55 0 -50
-8 -66 -41 -83 -41 -22 -86 -19 -113 8 -21 21 -86 224 -86 270 0 10 13 32 29
48 38 38 97 41 130 5z m-3795 -12 c36 -17 56 -49 56 -87 -1 -34 -36 -104 -57
-111 -16 -5 -18 -15 -14 -92 l3 -87 -23 6 c-13 4 -27 7 -31 7 -4 0 -8 37 -10
82 -2 67 -6 83 -19 86 -13 2 -21 -13 -34 -67 -17 -71 -22 -76 -61 -65 -20 5
-20 7 17 140 21 74 43 153 49 176 11 40 12 40 51 34 21 -3 54 -14 73 -22z
m3206 -18 c0 -3 -5 -17 -10 -31 -9 -24 -14 -27 -48 -22 -28 3 -43 -1 -60 -17
l-24 -21 4 35 c3 34 5 35 48 38 25 2 49 7 55 13 9 9 35 13 35 5z m-3022 -32
c2 -1 -15 -82 -38 -178 -44 -182 -50 -192 -90 -166 -13 8 -9 34 29 184 l43
176 27 -6 c14 -4 28 -8 29 -10z m3276 -27 c26 -26 68 -179 70 -255 1 -37 -4
-48 -28 -68 -23 -20 -37 -24 -74 -22 -60 4 -82 35 -107 154 -27 127 -26 161 8
190 38 33 99 33 131 1z m-3099 -11 c62 -26 67 -70 29 -236 -23 -100 -56 -135
-117 -127 -51 7 -87 44 -87 90 0 35 34 186 52 230 10 27 49 56 76 57 7 0 28
-6 47 -14z m2888 -187 c37 -95 66 -173 65 -174 -2 -2 -15 -6 -29 -10 -24 -6
-28 -3 -39 29 -8 24 -18 36 -30 36 -39 0 -50 -11 -50 -50 0 -25 -5 -40 -16
-44 -44 -17 -44 -16 -44 183 l0 190 28 4 c15 2 32 5 37 5 6 1 41 -75 78 -169z
m-2525 105 c40 -26 45 -57 27 -173 -19 -122 -35 -158 -71 -167 -26 -7 -127 0
-142 10 -5 3 -1 51 9 108 10 57 23 136 29 177 l12 73 56 -6 c31 -4 67 -14 80
-22z m2267 4 c15 -14 28 -38 32 -60 5 -37 5 -38 -23 -38 -24 0 -32 6 -41 30
-12 33 -46 41 -57 15 -7 -20 29 -234 42 -247 6 -6 18 -6 32 2 18 10 21 17 16
45 -6 29 -4 33 20 39 33 9 44 -5 44 -53 0 -27 -8 -42 -40 -72 -22 -21 -40 -40
-40 -43 0 -3 12 -6 28 -8 21 -2 28 -9 30 -30 4 -31 -28 -58 -70 -58 -37 0 -38
28 -1 32 36 4 43 28 8 28 -25 0 -27 3 -21 30 4 24 2 30 -12 30 -24 0 -60 35
-67 63 -12 55 -35 205 -35 230 0 18 11 39 29 58 37 37 88 39 126 7z m-1997
-61 l3 -29 -54 7 -54 7 -7 -32 c-10 -55 -8 -59 34 -66 43 -7 43 -7 34 -40 -5
-19 -11 -21 -44 -17 l-37 5 -7 -47 c-4 -26 -5 -50 -1 -53 3 -3 27 -9 53 -12
43 -5 47 -7 44 -30 -2 -14 -5 -26 -7 -28 -2 -2 -39 2 -84 8 -63 10 -81 16 -81
29 0 18 40 320 45 337 2 7 25 7 82 0 75 -11 78 -12 81 -39z m1789 -127 c29
-91 53 -171 53 -177 0 -8 -12 -13 -29 -13 -25 0 -30 5 -35 35 -6 32 -10 35
-41 35 -33 0 -34 -1 -37 -42 -3 -40 -5 -43 -33 -46 l-30 -3 7 123 c3 68 7 151
7 185 1 66 7 73 60 70 23 -2 29 -15 78 -167z m-199 123 c-2 -22 -9 -29 -31
-31 -22 -3 -26 -7 -22 -25 2 -12 10 -80 16 -151 10 -108 10 -129 -2 -137 -21
-13 -49 -11 -49 4 0 6 -7 75 -15 152 -8 77 -15 141 -15 143 0 1 -13 2 -29 2
-21 0 -30 6 -34 22 -4 12 -4 24 -1 27 6 6 91 18 147 20 36 1 38 -1 35 -26z
m-1283 -18 c18 -18 25 -35 25 -65 0 -38 -2 -40 -29 -40 -26 0 -30 4 -33 31 -3
35 -31 60 -47 44 -6 -6 -15 -62 -21 -124 -9 -97 -8 -117 4 -129 22 -22 44 -8
52 33 6 32 10 36 33 33 23 -3 26 -7 25 -41 -2 -65 -55 -104 -118 -86 -64 18
-71 41 -59 190 9 114 13 133 33 154 33 35 101 35 135 0z m1068 -7 c4 -18 9
-90 13 -160 l7 -127 -31 -30 c-41 -42 -92 -43 -131 -3 -26 25 -29 36 -35 127
-3 55 -9 126 -12 158 l-6 57 31 0 c35 0 37 -4 46 -174 4 -59 9 -114 12 -121 7
-20 29 -25 48 -11 16 12 17 24 6 155 -6 78 -9 146 -6 152 4 5 17 9 29 9 19 0
25 -7 29 -32z m-819 -7 c24 -25 33 -126 21 -238 -9 -83 -34 -113 -95 -113 -33
0 -48 6 -71 29 -27 28 -29 34 -28 108 1 141 12 193 44 221 23 20 36 23 68 19
22 -3 49 -15 61 -26z m181 -73 c26 -136 30 -142 44 -67 33 171 28 159 72 159
l39 0 0 -190 0 -190 -25 0 -25 0 0 137 c0 75 -3 134 -6 131 -3 -4 -16 -61 -30
-129 -36 -187 -51 -187 -84 1 -12 69 -24 127 -26 129 -2 2 -4 -55 -4 -127 l0
-132 -32 0 -31 0 6 137 c4 75 7 158 7 185 l0 48 39 0 39 0 17 -92z m380 69
c35 -29 45 -99 21 -145 -15 -30 -61 -52 -108 -52 -16 0 -18 -10 -18 -75 l0
-75 -30 0 -30 0 0 133 c0 72 -3 156 -6 185 l-7 52 76 0 c65 0 80 -3 102 -23z
m-2270 -225 c53 -16 60 -21 57 -42 -4 -34 -6 -34 -58 -16 -26 9 -49 16 -50 16
-1 0 -5 -12 -8 -27 -4 -16 -9 -35 -12 -45 -3 -12 5 -19 31 -28 36 -12 42 -24
26 -49 -8 -12 -16 -13 -45 -4 l-35 11 -15 -45 c-9 -25 -13 -49 -10 -54 3 -5
25 -14 50 -20 44 -11 54 -27 36 -56 -11 -17 -176 33 -169 51 3 7 28 86 57 175
43 135 54 161 68 157 9 -3 44 -14 77 -24z m4022 -14 c26 -25 84 -197 86 -254
1 -52 -40 -89 -99 -89 -36 0 -50 5 -65 24 -24 30 -79 204 -79 252 0 75 102
118 157 67z m-186 -203 c24 -96 41 -176 39 -179 -3 -2 -17 -7 -31 -11 -25 -6
-26 -4 -44 75 -18 79 -19 81 -44 75 -14 -4 -29 -9 -33 -13 -3 -4 3 -40 13 -81
11 -40 18 -75 16 -78 -3 -2 -17 -5 -32 -6 l-28 -2 -43 170 c-24 94 -40 173
-36 176 4 4 17 10 29 13 23 7 22 10 44 -82 13 -52 14 -53 43 -48 16 4 31 8 33
10 2 2 -3 31 -11 64 -9 33 -16 65 -16 70 0 10 19 18 46 21 7 1 30 -71 55 -174z
m-3553 140 c98 -29 108 -61 68 -213 -27 -105 -46 -139 -82 -148 -36 -9 -144
15 -144 33 0 38 84 343 94 343 7 0 36 -7 64 -15z m3285 -92 c48 -215 59 -286
45 -294 -27 -18 -43 -2 -100 96 -32 55 -58 95 -58 89 0 -7 9 -56 20 -109 11
-54 19 -99 18 -101 -2 -1 -14 -5 -28 -9 l-25 -6 -37 178 c-27 131 -33 180 -25
185 28 19 52 0 99 -77 27 -44 53 -84 58 -89 5 -4 0 29 -11 75 -26 118 -26 119
23 128 3 0 13 -29 21 -66z m-3024 31 c55 -13 71 -20 67 -31 -3 -8 -6 -19 -6
-25 0 -6 -20 -7 -54 -3 -50 7 -54 6 -59 -17 -14 -51 -9 -65 28 -72 35 -7 42
-19 26 -44 -5 -9 -19 -11 -43 -7 -35 7 -35 6 -47 -39 -16 -64 -16 -64 42 -73
47 -8 52 -11 49 -33 -1 -13 -4 -25 -6 -27 -1 -2 -39 5 -84 14 -60 13 -82 21
-82 33 0 8 16 85 35 170 19 85 35 158 35 163 0 11 19 9 99 -9z m2781 -43 c0
-27 -3 -30 -51 -36 l-50 -7 6 -42 c9 -50 12 -56 28 -51 59 18 67 16 67 -14 0
-25 -5 -30 -35 -35 -30 -6 -35 -11 -34 -34 1 -39 14 -77 25 -75 99 17 104 16
104 -10 0 -16 -7 -28 -17 -31 -30 -9 -145 -27 -148 -24 -7 7 -65 351 -61 356
6 5 119 29 149 31 12 1 17 -7 17 -28z m-2454 -19 c7 -4 14 -74 18 -190 l8
-183 -29 3 c-25 3 -28 7 -31 46 -3 33 -7 42 -22 42 -10 0 -25 2 -32 5 -10 4
-18 -7 -27 -35 -11 -39 -14 -41 -39 -35 -15 4 -28 8 -29 9 -2 2 51 160 112
334 5 13 53 16 71 4z m2224 -30 c36 -36 47 -98 26 -141 -12 -23 -28 -34 -64
-44 l-47 -14 4 -44 c10 -96 8 -104 -21 -107 -22 -3 -28 1 -32 20 -14 66 -46
331 -41 336 6 7 76 19 118 21 19 1 38 -8 57 -27z m-2055 -31 c-14 -92 -33
-266 -30 -270 2 -2 24 -6 50 -8 39 -5 45 -9 45 -29 0 -12 -4 -25 -8 -28 -7 -4
-153 12 -160 18 -2 3 35 295 44 337 4 22 9 25 34 21 28 -4 30 -6 25 -41z
m1837 -131 c22 -203 22 -197 -4 -203 -12 -4 -24 -4 -26 -2 -3 3 -9 51 -14 107
-14 161 -20 166 -33 25 -11 -124 -26 -169 -44 -138 -5 7 -23 63 -41 124 -18
62 -37 117 -42 122 -6 6 -7 1 -4 -15 6 -26 26 -208 26 -235 0 -9 -9 -15 -25
-15 -29 0 -29 1 -45 160 -6 63 -13 137 -17 163 l-6 48 43 -3 43 -3 32 -95 c36
-107 39 -104 51 38 l7 83 41 -3 41 -3 17 -155z m-1581 140 c26 0 29 -4 29 -30
0 -28 -2 -30 -32 -28 l-33 3 -14 -152 -14 -153 -34 0 c-33 0 -34 1 -29 33 9
51 26 223 26 257 0 27 -3 30 -31 30 -24 0 -30 3 -25 16 3 9 6 20 6 26 0 7 21
9 61 4 34 -3 75 -6 90 -6z m221 -41 l31 -30 -7 -114 c-8 -143 -18 -173 -62
-191 -54 -23 -115 1 -135 53 -11 29 7 246 22 271 32 51 106 56 151 11z m1048
7 c0 -21 -6 -24 -56 -31 -51 -6 -55 -9 -50 -28 3 -12 6 -32 6 -44 0 -20 5 -23
40 -23 36 0 40 -3 40 -24 0 -26 -16 -36 -57 -36 -23 0 -25 -3 -19 -31 3 -17 6
-41 6 -54 0 -20 4 -21 55 -17 l55 4 0 -31 0 -31 -84 0 -84 0 -6 63 c-3 34 -9
115 -12 179 l-7 116 29 5 c16 2 55 5 87 6 54 1 57 0 57 -23z m-244 -11 c14
-14 24 -33 22 -43 -5 -27 -46 -27 -67 -1 -16 20 -21 21 -35 10 -28 -24 -17
-50 49 -114 61 -59 65 -66 65 -108 0 -36 -5 -51 -26 -70 -52 -49 -149 -18
-156 51 -3 21 2 26 24 28 22 3 30 -2 38 -23 14 -37 54 -32 58 8 3 23 -6 37
-48 75 -59 54 -80 88 -80 132 0 73 102 109 156 55z m-451 -10 c24 -23 25 -30
25 -145 0 -174 -18 -200 -136 -200 l-54 0 0 185 0 185 70 0 c62 0 74 -3 95
-25z m255 0 c0 -22 -4 -25 -39 -25 -63 0 -71 -7 -71 -56 l0 -44 39 0 c33 0 39
-4 43 -24 4 -22 1 -25 -39 -31 l-43 -6 0 -49 0 -49 58 -3 c53 -3 57 -5 57 -28
0 -25 -2 -25 -87 -28 l-88 -3 0 186 0 185 85 0 c84 0 85 0 85 -25z"/>
<path d="M3380 13478 l0 -653 2690 -1 2690 0 0 653 0 653 -2690 0 -2690 0 0
-652z m1189 256 l49 -149 166 -5 167 -5 -131 -93 c-71 -51 -130 -96 -130 -101
0 -4 20 -72 45 -151 25 -78 44 -144 42 -146 -1 -2 -52 31 -112 73 -61 42 -119
82 -131 90 -20 12 -31 7 -149 -77 -70 -50 -128 -90 -130 -88 -1 2 18 68 42
148 24 80 41 150 39 156 -2 6 -61 51 -129 100 l-125 89 166 5 166 5 49 153
c27 85 50 152 53 150 2 -2 26 -71 53 -154z m1557 -6 l48 -148 170 0 170 0
-130 -91 c-71 -50 -132 -94 -136 -98 -7 -6 73 -278 88 -302 12 -20 -14 -5
-137 82 l-130 91 -37 -26 c-20 -14 -77 -55 -127 -90 -49 -35 -91 -63 -93 -61
-3 2 71 255 85 291 2 6 -56 53 -128 105 l-133 94 165 3 166 2 49 155 c27 84
52 151 55 147 4 -4 28 -73 55 -154z m1767 -148 l167 -5 -130 -94 c-71 -52
-130 -99 -130 -105 0 -6 20 -74 45 -151 24 -76 43 -141 41 -142 -1 -2 -27 14
-57 35 -30 21 -88 61 -131 90 l-76 53 -127 -91 c-70 -50 -129 -89 -131 -88 -1
2 18 68 42 146 25 79 43 149 41 156 -3 8 -63 55 -133 105 l-126 91 168 2 168
3 50 155 49 155 52 -155 52 -155 166 -5z"/>
<path d="M3382 11823 l3 -858 87 -3 86 -3 26 78 c34 102 77 175 123 210 29 22
47 28 89 28 104 0 158 -76 248 -349 81 -246 131 -312 192 -255 25 23 94 154
94 178 0 7 -26 11 -79 11 -89 0 -93 3 -84 69 l6 41 181 -2 181 -3 0 -50 0 -50
-51 -3 c-51 -3 -51 -3 -64 -45 -23 -77 -74 -171 -117 -214 -68 -69 -146 -70
-214 -2 -53 53 -88 126 -148 314 -29 88 -63 179 -77 203 -53 90 -104 77 -159
-41 -54 -115 -55 -112 48 -115 l88 -3 -3 -47 -3 -47 -222 -3 -222 -2 4 -28 c3
-15 10 -70 16 -122 37 -323 149 -683 305 -990 384 -755 1167 -1441 2222 -1951
68 -32 129 -59 135 -59 20 0 413 201 567 290 310 178 587 369 840 579 153 126
474 449 584 586 308 385 517 816 620 1278 23 100 65 363 66 405 0 10 -21 12
-87 10 l-86 -3 -18 -52 c-29 -85 -80 -172 -122 -208 -68 -58 -127 -58 -195 1
-54 46 -98 136 -161 331 -55 170 -76 212 -116 239 -41 27 -67 7 -109 -78 -19
-40 -38 -85 -42 -100 l-6 -27 89 -3 88 -3 0 -45 0 -45 -185 0 -185 0 -3 47 -3
47 47 3 47 3 22 65 c68 201 171 289 274 236 71 -37 122 -128 185 -330 60 -190
112 -286 155 -286 27 0 66 48 105 130 l36 75 -62 3 c-104 4 -108 6 -108 56 0
29 5 46 14 49 8 3 110 4 225 1 l211 -4 0 860 0 860 -2690 0 -2690 0 2 -857z
m2716 631 l22 -15 0 -480 0 -479 -50 0 -50 0 0 415 c0 271 -3 415 -10 415 -9
0 -230 -126 -590 -337 l-125 -73 281 0 c204 0 283 -3 292 -12 9 -9 12 -69 12
-211 l0 -198 -47 3 -48 3 -3 157 -3 157 -325 1 -326 0 -49 -27 -49 -28 0 -187
c0 -179 -1 -188 -21 -198 -12 -7 -66 -10 -142 -8 l-122 3 -3 -96 -3 -96 95 -5
c103 -6 143 -21 180 -71 19 -26 21 -42 21 -175 0 -161 -7 -188 -58 -226 -23
-17 -48 -22 -130 -26 l-102 -5 -3 -97 -3 -98 126 0 c173 0 165 11 165 -219 l0
-179 46 -26 47 -26 329 2 330 3 -1 158 -2 157 51 0 50 0 0 -199 c0 -149 -3
-202 -12 -208 -7 -4 -139 -10 -293 -13 l-280 -5 180 -104 c99 -57 255 -148
347 -203 92 -54 174 -101 183 -104 13 -5 15 45 17 417 l3 424 45 0 45 0 3
-479 c1 -345 -1 -483 -9 -492 -27 -33 -39 -27 -829 431 -179 103 -332 194
-340 202 -12 11 -15 46 -15 186 l0 172 -111 5 c-124 6 -144 15 -170 77 -18 43
-18 194 0 236 28 65 57 81 162 87 78 4 98 8 109 24 20 27 29 98 22 175 -9 89
-23 101 -129 101 -88 0 -124 13 -154 57 -16 24 -19 47 -19 150 l0 123 33 32
c32 33 33 33 142 36 l110 4 0 161 c0 89 4 168 9 176 8 12 1126 669 1141 670 3
1 16 -6 28 -15z m331 -194 c361 -208 475 -276 478 -286 2 -7 -32 -57 -76 -112
-92 -116 -103 -143 -72 -175 33 -36 45 -81 31 -122 -42 -127 -218 -81 -197 52
4 20 18 48 32 63 19 20 25 36 25 73 l0 48 -147 -3 -148 -3 -3 -157 -3 -158
-44 0 -45 0 0 198 c0 141 3 201 12 210 9 9 76 12 238 12 215 0 228 1 245 20
11 12 15 24 9 29 -5 5 -108 66 -229 137 -294 170 -275 155 -275 215 0 27 3 49
6 49 4 0 77 -40 163 -90z m828 -541 c89 -43 126 -169 74 -253 -46 -74 -128
-106 -216 -83 -29 7 -34 2 -154 -138 l-125 -145 -94 0 -93 0 3 43 3 42 62 3
61 3 122 129 121 129 -15 30 c-20 37 -21 123 -2 159 18 35 64 78 96 91 42 17
111 12 157 -10z m-1759 -106 l-3 -38 -123 -3 -122 -3 6 -24 c5 -22 3 -25 -22
-25 -25 0 -32 7 -52 51 -37 79 -37 79 153 79 l166 0 -3 -37z m-37 -191 c59
-53 48 -161 -21 -197 -35 -18 -177 -21 -214 -3 -53 24 -79 103 -52 160 26 54
58 67 163 68 87 0 94 -2 124 -28z m403 -48 c12 -4 16 -20 16 -55 l0 -49 40 0
40 0 0 51 0 50 33 -3 c31 -3 32 -5 35 -50 l3 -48 40 0 39 0 0 50 c0 49 1 50
29 50 28 0 30 -2 33 -47 l3 -48 43 -3 42 -3 0 50 c0 50 1 51 30 51 29 0 30 -1
30 -50 0 -48 1 -50 29 -50 34 0 81 -34 81 -60 0 -39 12 -50 61 -56 42 -6 49
-10 49 -29 0 -26 -17 -35 -66 -35 -33 0 -34 -1 -34 -39 l0 -40 48 -3 c43 -3
47 -5 47 -28 0 -23 -4 -25 -47 -28 l-48 -3 0 -44 0 -44 48 -3 c43 -3 47 -5 47
-28 0 -23 -4 -25 -47 -28 l-48 -3 0 -39 0 -39 48 -3 c45 -3 47 -4 47 -33 0
-29 -2 -30 -52 -33 -53 -3 -53 -3 -53 -36 0 -40 -25 -65 -74 -73 -36 -6 -36
-6 -36 -54 0 -48 -1 -49 -30 -49 -29 0 -30 1 -30 50 l0 50 -45 0 -45 0 0 -50
c0 -49 -1 -50 -30 -50 -29 0 -30 1 -30 50 l0 50 -39 0 -40 0 -3 -47 c-3 -46
-4 -48 -35 -51 l-33 -3 0 50 0 51 -40 0 -40 0 0 -51 0 -50 -32 3 c-32 3 -33 5
-33 47 0 42 -2 45 -35 54 -49 12 -70 34 -70 74 l0 33 -50 0 -50 0 0 35 0 35
51 0 50 0 -3 38 c-3 37 -3 37 -50 40 -46 3 -48 5 -48 32 0 27 2 29 48 32 l47
3 0 40 0 40 -47 3 c-46 3 -48 5 -48 32 0 27 2 29 48 32 47 3 47 3 47 38 0 35
-1 35 -46 38 -38 2 -48 7 -53 24 -8 33 11 48 60 48 43 0 44 1 44 33 0 40 25
67 72 76 31 6 33 10 36 51 2 25 9 48 15 52 15 9 12 9 31 2z m-364 -289 l0 -35
-126 0 -126 0 7 -30 c6 -27 4 -30 -19 -30 -21 0 -31 10 -52 51 -14 28 -23 57
-20 65 4 11 38 14 171 14 l165 0 0 -35z m1931 -20 c112 -74 106 -245 -10 -313
-53 -31 -128 -34 -177 -9 -37 19 -94 81 -94 102 0 13 -34 15 -217 17 -198 1
-231 2 -270 7 -8 0 -13 17 -13 46 l0 45 244 0 244 0 26 45 c55 93 177 120 267
60z m-1965 -179 c28 -28 34 -42 34 -75 0 -57 -24 -100 -65 -117 -47 -19 -168
-18 -210 2 -57 27 -81 105 -50 164 26 51 50 60 158 60 l99 0 34 -34z m1378
-188 c14 -13 73 -77 131 -143 l106 -120 83 0 c74 0 86 -3 118 -27 106 -81 98
-236 -16 -303 -72 -42 -175 -27 -228 32 -44 49 -61 140 -34 191 14 26 12 29
-61 112 -181 203 -165 190 -233 190 l-60 0 0 45 0 45 84 0 c74 0 88 -3 110
-22z m-1346 -140 l-3 -33 -123 -3 -123 -3 6 -29 c6 -27 4 -30 -19 -30 -21 0
-31 10 -51 50 -42 83 -48 80 146 80 l170 0 -3 -32z m-27 -206 c50 -56 34 -153
-31 -187 -37 -19 -169 -20 -214 -1 -34 14 -66 65 -66 106 0 38 30 88 63 104
24 13 55 16 125 14 92 -3 94 -4 123 -36z m879 -182 l0 -160 148 0 149 0 -5 58
c-3 41 -11 65 -28 85 -57 67 -11 167 76 167 60 0 100 -41 100 -102 0 -35 -6
-50 -25 -68 -14 -13 -25 -34 -25 -46 0 -12 23 -55 51 -96 124 -180 124 -179
109 -189 -8 -5 -154 -90 -325 -188 l-310 -179 -3 51 c-2 32 2 55 10 63 7 7
119 74 248 149 129 75 239 140 243 145 5 4 3 17 -5 29 -12 20 -19 21 -237 21
-195 0 -227 2 -243 17 -16 14 -18 35 -18 210 l0 193 45 0 45 0 0 -160z m-528
-991 c64 -13 156 -61 191 -97 l25 -27 5 -312 c4 -172 4 -313 3 -313 -2 0 -27
15 -55 34 -92 62 -152 79 -281 80 -63 0 -127 -3 -142 -7 l-28 -7 0 324 0 325
33 4 c69 8 199 6 249 -4z m779 -5 c9 -5 11 -82 6 -322 -4 -173 -8 -316 -9
-317 -2 -1 -38 3 -82 8 -142 19 -292 -15 -378 -84 l-38 -30 0 310 0 309 26 31
c66 79 179 113 351 107 62 -2 118 -8 124 -12z m-1143 -436 l2 -338 245 0 c227
0 247 -1 277 -20 23 -14 51 -20 88 -20 37 0 65 6 88 20 30 19 50 20 277 20
l245 0 2 338 3 337 33 3 32 3 0 -370 0 -371 -263 0 -263 0 -41 -35 c-39 -33
-45 -35 -117 -35 -73 0 -78 1 -115 35 l-38 35 -262 0 -261 0 0 363 c0 200 3
367 7 371 4 4 19 6 33 4 l25 -3 3 -337z"/>
<path d="M7109 11621 c-37 -37 -39 -88 -6 -126 66 -76 188 -5 156 92 -21 64
-101 83 -150 34z"/>
<path d="M5236 11364 c-21 -21 -20 -40 4 -64 16 -16 33 -20 94 -20 82 0 106
13 106 55 0 34 -27 45 -114 45 -54 0 -79 -4 -90 -16z"/>
<path d="M5792 11188 c-9 -9 -12 -86 -12 -285 0 -259 1 -273 19 -283 12 -6
117 -10 271 -10 154 0 259 4 271 10 18 10 19 24 19 283 0 199 -3 276 -12 285
-9 9 -84 12 -278 12 -194 0 -269 -3 -278 -12z m493 -283 l0 -210 -215 0 -215
0 -3 200 c-1 110 0 205 3 212 3 11 50 13 217 11 l213 -3 0 -210z"/>
<path d="M7273 10985 c-12 -8 -26 -30 -33 -49 -20 -63 21 -116 91 -116 29 0
43 7 63 31 15 17 26 43 26 59 0 16 -11 42 -26 59 -20 24 -34 31 -63 31 -20 0
-46 -7 -58 -15z"/>
<path d="M5230 10831 c-28 -53 7 -81 100 -81 74 0 110 18 110 54 0 38 -19 46
-112 46 -76 0 -89 -2 -98 -19z"/>
<path d="M7115 10328 c-15 -14 -28 -38 -32 -60 -5 -32 -1 -41 25 -68 62 -61
157 -25 157 60 0 34 -6 47 -28 66 -36 31 -87 32 -122 2z"/>
<path d="M5240 10300 c-11 -11 -20 -24 -20 -30 0 -5 9 -19 20 -30 16 -16 33
-20 94 -20 82 0 106 13 106 55 0 34 -27 45 -109 45 -58 0 -75 -4 -91 -20z"/>
<path d="M9590 7838 c0 -6 50 -127 56 -136 1 -2 12 1 23 8 17 8 19 15 11 28
-14 24 -89 108 -90 100z"/>
<path d="M2677 7673 c-45 -55 -45 -57 -26 -71 11 -8 22 -12 24 -11 7 8 55 133
52 136 -2 1 -24 -23 -50 -54z"/>
<path d="M2901 7614 c-26 -44 -26 -51 1 -60 39 -12 76 54 46 84 -18 18 -24 15
-47 -24z"/>
<path d="M2825 7474 c-30 -51 -26 -64 16 -64 52 0 72 85 25 103 -10 4 -23 -9
-41 -39z"/>
<path d="M3134 7522 c-10 -9 -37 -59 -62 -110 -35 -75 -41 -96 -32 -107 29
-34 49 -17 100 85 27 55 50 106 50 114 0 9 -9 20 -19 26 -15 8 -24 6 -37 -8z"/>
<path d="M3338 7387 c-10 -23 -18 -48 -18 -55 0 -16 54 -16 68 1 19 22 25 66
12 82 -22 27 -44 17 -62 -28z"/>
<path d="M3555 7239 c-19 -33 -33 -65 -30 -70 9 -14 45 -11 45 4 1 6 7 38 14
70 8 31 13 57 11 57 -2 0 -20 -27 -40 -61z"/>
<path d="M3963 7178 c-15 -19 -63 -182 -63 -212 0 -35 28 -46 49 -19 9 11 30
63 45 116 23 79 26 99 16 112 -15 18 -34 19 -47 3z"/>
<path d="M4191 7083 c-19 -75 -19 -78 14 -78 25 0 31 6 44 39 14 37 14 40 -8
57 -33 27 -39 24 -50 -18z"/>
<path d="M7643 7043 c-18 -7 -16 -53 8 -154 21 -91 35 -114 63 -103 22 8 21
47 -5 155 -20 87 -37 112 -66 102z"/>
<path d="M4560 7000 c-14 -27 -52 -212 -46 -227 8 -19 44 -16 55 5 6 10 20 62
32 115 18 79 20 99 9 112 -17 21 -37 19 -50 -5z"/>
<path d="M7420 6923 c0 -65 12 -113 27 -113 24 0 25 27 2 89 -12 34 -23 61
-25 61 -2 0 -4 -17 -4 -37z"/>
<path d="M4905 6938 c-6 -22 -35 -204 -35 -227 0 -16 6 -21 25 -21 32 0 39 16
59 134 13 75 14 101 5 112 -14 17 -48 18 -54 2z"/>
<path d="M6961 6808 c-1 -71 1 -78 18 -78 30 0 30 9 6 85 l-23 70 -1 -77z"/>
<path d="M5717 6853 c-3 -5 -8 -60 -11 -124 -6 -100 -5 -117 9 -129 12 -10 21
-11 33 -3 23 14 42 224 22 248 -13 16 -46 20 -53 8z"/>
<path d="M6270 6799 l0 -61 28 6 c30 8 52 31 52 56 0 27 -30 60 -56 60 -23 0
-24 -3 -24 -61z"/>
<path d="M8042 6608 c-18 -18 -14 -42 21 -148 29 -86 34 -95 57 -95 18 0 26 6
28 22 5 33 -57 220 -74 227 -20 8 -18 8 -32 -6z"/>
<path d="M4336 6423 c-16 -65 -31 -123 -33 -130 -3 -6 6 -14 18 -18 34 -11 53
20 79 131 l22 98 -22 18 c-12 10 -25 18 -29 18 -4 0 -20 -53 -35 -117z"/>
<path d="M4916 6323 c-10 -32 -21 -63 -23 -69 -2 -6 7 -14 21 -16 26 -5 26 -5
26 68 0 41 -1 74 -3 74 -2 0 -11 -26 -21 -57z"/>
<path d="M7106 6403 c-15 -4 -17 -11 -12 -41 3 -21 6 -45 6 -54 0 -21 39 -25
58 -6 20 20 15 86 -7 98 -11 5 -21 9 -23 9 -2 -1 -11 -3 -22 -6z"/>
<path d="M5529 6334 c-8 -10 -13 -52 -13 -132 l-1 -117 24 0 c30 0 35 17 44
142 6 76 4 95 -9 107 -19 20 -28 20 -45 0z"/>
<path d="M5874 6317 c-2 -7 -3 -67 -2 -132 3 -101 6 -120 19 -123 38 -7 49 24
49 137 0 70 -4 111 -12 119 -16 16 -47 15 -54 -1z"/>
<path d="M3396 5798 c-25 -68 -46 -131 -46 -141 0 -32 54 -77 92 -77 49 0 68
26 121 163 l45 118 -24 10 c-14 5 -27 9 -28 9 -2 0 -22 -51 -46 -112 -48 -124
-60 -144 -85 -134 -23 8 -17 37 33 164 l41 103 -25 9 c-14 6 -27 10 -28 10 -2
0 -24 -55 -50 -122z"/>
<path d="M8609 5895 c-47 -26 -52 -63 -20 -158 35 -102 55 -143 76 -151 58
-22 128 17 128 71 0 44 -71 220 -96 238 -27 19 -54 19 -88 0z m100 -149 c28
-79 30 -91 17 -104 -23 -24 -40 -2 -77 100 -31 88 -32 91 -14 104 27 20 36 7
74 -100z"/>
<path d="M3644 5839 c-3 -5 -27 -75 -54 -154 -40 -119 -46 -145 -33 -149 32
-13 40 -3 63 70 13 41 28 77 32 80 4 3 8 -38 8 -90 0 -78 3 -96 15 -97 8 -1
20 -2 26 -3 9 -1 113 294 106 301 -2 1 -14 4 -27 5 -20 3 -26 -6 -50 -77 l-28
-80 -4 94 c-3 86 -5 94 -25 102 -13 5 -25 4 -29 -2z"/>
<path d="M8428 5829 c-50 -18 -58 -24 -58 -45 0 -22 4 -25 32 -22 l31 3 41
-122 c40 -122 50 -136 84 -115 9 6 2 37 -29 130 -40 121 -42 142 -13 142 24 0
13 45 -11 47 -11 1 -46 -7 -77 -18z"/>
<path d="M8270 5777 c-36 -12 -65 -24 -65 -27 1 -3 20 -73 44 -157 l43 -151
51 15 c87 26 99 32 95 51 -4 18 -32 21 -80 9 -25 -7 -28 -4 -38 34 -12 45 -5
59 33 59 14 0 18 6 15 28 -2 15 -8 26 -13 25 -6 -1 -22 -4 -36 -8 -23 -6 -28
-2 -38 25 -14 40 -9 48 34 56 41 7 46 13 38 42 -6 26 -1 26 -83 -1z"/>
<path d="M3855 5767 c-2 -7 -23 -76 -48 -154 -45 -146 -46 -153 -2 -153 15 0
110 283 101 299 -9 14 -47 20 -51 8z"/>
<path d="M3937 5688 c-4 -35 -9 -109 -13 -165 l-7 -102 27 -7 c15 -3 28 -5 30
-3 21 27 145 282 141 289 -4 6 -15 10 -25 10 -15 0 -33 -25 -70 -97 -43 -86
-49 -93 -44 -58 21 161 21 176 3 186 -31 16 -36 10 -42 -53z"/>
<path d="M8033 5709 c-18 -5 -33 -13 -33 -17 0 -4 18 -74 40 -156 22 -81 40
-149 40 -151 0 -1 11 0 25 3 29 5 31 18 11 84 -14 44 -12 58 5 58 4 0 22 -25
39 -55 24 -42 37 -55 55 -55 38 0 37 13 -4 75 -33 50 -37 61 -28 85 13 34 1
96 -24 121 -21 21 -70 24 -126 8z m91 -55 c12 -31 6 -63 -13 -74 -23 -12 -27
-8 -36 48 -6 40 -6 42 18 42 14 0 28 -7 31 -16z"/>
<path d="M4140 5673 c0 -9 -16 -77 -36 -151 -20 -73 -34 -135 -31 -139 4 -3
36 -14 74 -24 52 -15 69 -16 75 -6 16 25 7 37 -37 48 -47 12 -49 16 -39 69 7
31 8 32 44 26 29 -5 39 -2 44 10 10 27 7 32 -24 39 -38 8 -42 16 -29 55 12 33
16 33 81 14 11 -3 19 3 23 16 9 27 7 29 -56 46 -71 18 -89 18 -89 -3z"/>
<path d="M7830 5658 c-19 -5 -36 -11 -37 -11 0 -1 16 -72 36 -157 37 -155 46
-173 80 -151 13 9 10 40 -14 121 -4 11 5 19 27 25 46 14 72 55 64 98 -4 19
-16 47 -27 61 -22 29 -63 33 -129 14z m88 -50 c19 -19 15 -66 -7 -78 -11 -5
-22 -10 -25 -10 -6 0 -26 68 -26 88 0 15 42 16 58 0z"/>
<path d="M4330 5646 c0 -3 -16 -73 -35 -157 -19 -83 -32 -155 -29 -160 3 -5
16 -9 29 -9 21 0 25 7 36 60 16 82 35 78 43 -9 6 -63 9 -70 33 -76 14 -3 27
-4 29 -2 2 2 0 35 -5 73 -7 59 -6 72 9 89 61 70 51 151 -23 173 -49 15 -87 23
-87 18z m78 -68 c7 -7 12 -24 12 -38 0 -31 -17 -50 -43 -50 -17 0 -19 5 -13
42 10 60 20 70 44 46z"/>
<path d="M7400 5629 c0 -7 -11 -9 -31 -5 -38 7 -69 -8 -69 -34 0 -22 15 -27
26 -9 4 6 20 8 39 5 23 -5 38 -2 49 9 20 21 21 45 1 45 -8 0 -15 -5 -15 -11z"/>
<path d="M7549 5595 c-45 -24 -49 -57 -24 -179 25 -129 43 -152 110 -143 47 7
75 36 75 78 0 52 -41 214 -58 231 -24 25 -72 31 -103 13z m85 -139 c20 -99 20
-122 -1 -130 -25 -10 -31 2 -53 109 -19 94 -20 101 -3 113 26 19 39 -1 57 -92z"/>
<path d="M4564 5586 c-56 -25 -60 -90 -11 -162 44 -64 48 -78 32 -100 -11 -15
-15 -16 -29 -5 -9 7 -16 22 -16 32 0 15 -7 19 -31 19 -30 0 -31 -1 -25 -32 13
-69 87 -99 140 -57 36 28 36 92 1 140 -41 57 -55 87 -49 103 9 23 41 20 49 -4
3 -11 10 -20 15 -20 5 0 15 -3 24 -6 13 -5 16 1 16 25 0 29 -29 71 -49 71 -5
0 -15 2 -23 5 -7 2 -27 -2 -44 -9z"/>
<path d="M4735 5548 c-7 -22 -45 -262 -45 -284 0 -14 8 -24 22 -27 12 -4 24
-5 25 -3 5 5 53 286 53 309 0 20 -48 25 -55 5z"/>
<path d="M7346 5548 c-2 -7 -7 -84 -10 -171 l-6 -158 27 3 c24 3 28 8 31 41 3
33 6 37 32 37 22 0 30 -6 39 -31 9 -26 14 -29 33 -24 13 4 25 9 27 11 2 2 -20
70 -50 151 -54 147 -54 148 -87 151 -20 2 -34 -2 -36 -10z m70 -190 c-22 -15
-26 -7 -25 55 l1 62 17 -55 c12 -38 14 -57 7 -62z"/>
<path d="M4845 5541 c-7 -12 -46 -313 -41 -318 3 -3 33 -7 68 -10 81 -7 94 7
113 114 21 117 19 155 -9 182 -22 21 -122 45 -131 32z m84 -60 c11 -7 12 -25
7 -82 -10 -113 -17 -133 -50 -137 -25 -3 -28 -1 -23 20 3 13 11 65 18 116 12
90 18 102 48 83z"/>
<path d="M7121 5523 c-31 -4 -33 -6 -28 -36 3 -18 13 -92 23 -164 18 -134 21
-141 58 -127 16 6 16 36 0 112 -9 46 27 19 51 -38 23 -53 41 -68 71 -56 12 5
9 17 -17 67 -26 52 -29 66 -20 86 24 52 4 142 -34 157 -17 6 -45 6 -104 -1z
m76 -51 c14 -9 20 -62 9 -80 -4 -7 -15 -12 -26 -12 -14 0 -19 9 -22 46 -2 25
-1 47 1 50 7 6 25 5 38 -4z"/>
<path d="M5048 5353 c-26 -87 -46 -158 -45 -159 1 -1 14 -4 29 -8 25 -6 28 -3
34 29 5 30 10 35 35 35 24 0 29 -4 29 -24 0 -40 11 -56 37 -56 l25 0 -6 88
c-19 253 -17 240 -40 246 -48 13 -50 10 -98 -151z m82 7 c0 -53 -2 -60 -20
-60 -11 0 -20 3 -20 6 0 13 32 114 36 114 2 0 4 -27 4 -60z"/>
<path d="M6994 5502 c-9 -6 6 -187 26 -319 0 -5 46 -3 51 1 2 3 -3 71 -13 153
-9 81 -17 154 -17 161 -1 13 -29 16 -47 4z"/>
<path d="M6858 5491 c-31 -3 -59 -9 -63 -13 -3 -3 0 -75 7 -159 15 -176 9
-167 115 -154 48 6 53 9 53 32 0 25 -2 25 -49 21 -54 -5 -61 2 -61 65 0 24 3
27 35 27 31 0 35 3 35 25 0 23 -4 25 -40 25 l-40 0 0 40 0 40 46 0 c43 0 45 1
42 27 -4 31 -6 32 -80 24z"/>
<path d="M5239 5339 c-8 -85 -14 -158 -14 -164 0 -6 30 -10 69 -10 97 0 107
14 114 168 l5 115 -28 18 c-15 9 -51 19 -80 22 l-52 4 -14 -153z m110 87 c13
-16 5 -168 -11 -198 -5 -10 -19 -18 -31 -18 l-22 0 11 113 c6 61 12 113 13
115 4 7 30 0 40 -12z"/>
<path d="M5469 5468 c-5 -8 -23 -320 -20 -324 2 -2 37 -4 78 -4 71 0 73 1 73
25 0 23 -4 25 -45 25 l-45 0 0 49 0 48 37 -1 c29 -1 38 3 41 18 5 23 -14 36
-52 36 -21 0 -27 4 -22 16 3 9 6 27 6 41 0 25 2 25 44 20 40 -6 44 -4 48 18 4
18 0 25 -16 29 -21 6 -125 8 -127 4z"/>
<path d="M6577 5463 c-2 -5 1 -79 6 -165 l10 -158 36 0 c54 0 109 18 121 40
18 33 12 105 -10 125 -18 16 -18 19 -3 41 18 28 12 78 -14 106 -12 14 -31 18
-79 18 -35 0 -64 -3 -67 -7z m111 -80 c2 -25 -1 -33 -18 -38 -26 -8 -26 -9
-34 38 -7 38 -7 38 21 35 23 -2 29 -8 31 -35z m13 -119 c13 -35 4 -60 -23 -68
-28 -7 -27 -8 -34 47 -7 46 -6 47 20 47 19 0 29 -7 37 -26z"/>
<path d="M5747 5339 c-4 -67 -7 -141 -7 -164 l0 -42 44 -6 c53 -8 97 6 114 34
16 25 27 172 18 223 -9 45 -34 62 -107 71 l-56 7 -6 -123z m97 58 c16 -12 18
-26 15 -109 -2 -53 -6 -99 -9 -101 -3 -3 -14 -7 -25 -9 -18 -3 -20 3 -23 62
-4 74 6 170 17 170 4 0 15 -6 25 -13z"/>
<path d="M6272 5453 c-22 -4 -22 -5 -20 -166 l3 -162 25 0 c24 0 25 3 28 68 4
85 19 85 46 -1 18 -57 22 -62 48 -62 34 0 34 0 7 78 -19 56 -19 63 -5 84 24
34 21 102 -6 132 -24 26 -79 39 -126 29z m77 -57 c7 -8 11 -30 9 -48 -2 -25
-8 -34 -25 -36 -21 -3 -23 0 -23 47 0 53 15 67 39 37z"/>
<path d="M6474 5298 c4 -90 9 -165 11 -167 2 -2 15 -1 29 3 l24 6 -4 117 c-8
188 -11 203 -41 203 l-26 0 7 -162z"/>
<path d="M5967 5443 c-4 -3 -7 -78 -7 -165 l0 -158 80 0 c79 0 80 0 80 25 0
23 -3 25 -50 25 l-50 0 0 50 0 50 35 0 c31 0 35 3 35 25 0 22 -4 25 -35 25
-34 0 -35 1 -35 40 l0 40 44 0 c35 0 45 4 49 19 3 11 2 22 -1 25 -8 8 -137 7
-145 -1z"/>
</g>
</svg>
